PathFileType        4      (X/Y/Z)      C:\Users\pc\Desktop\IMUTRC\Sujet_04\Sujet_04_velo_80.trc         
DataRate	CameraRate	NumFrames	NumMarkers	Units	OrigDataRate	OrigDataStartFrame	OrigNumFrames
60.0	60.0	4	64	mm	60.0	818	934
Frame#	Time	pHipOrigin			pRightASI			pLeftASI			pRightCSI			pLeftCSI			pRightIschialTub			pLeftIschialTub			pSacrum			pL5SpinalProcess			pL3SpinalProcess			pT12SpinalProcess			pIJ			pT4SpinalProcess			pT8SpinalProcess			pPX			pC7SpinalProcess			pTopOfHead			pRightAuricularis			pLeftAuricularis			pBackOfHead			pRightAcromion			pLeftAcromion			pRightArmLatEpicondyle			pRightArmMedEpicondyle			pLeftArmLatEpicondyle			pLeftArmMedEpicondyle			pRightUlnarStyloid			pRightRadialStyloid			pRightOlecranon			pLeftUlnarStyloid			pLeftRadialStyloid			pLeftOlecranon			pRightTopOfHand			pRightPinky			pRightBallHand			pLeftTopOfHand			pLeftPinky			pLeftBallHand			pRightGreaterTrochanter			pRightKneeLatEpicondyle			pRightKneeMedEpicondyle			pRightPatella			pLeftGreaterTrochanter			pLeftKneeLatEpicondyle			pLeftKneeMedEpicondyle			pLeftPatella			pRightTibialTub			pRightLatMalleolus			pRightMedMalleolus			pLeftTibialTub			pLeftLatMalleolus			pLeftMedMalleolus			pRightHeelFoot			pRightFirstMetatarsal			pRightFifthMetatarsal			pRightPivotFoot			pRightHeelCenter			pRightToe			pLeftHeelFoot			pLeftFirstMetatarsal			pLeftFifthMetatarsal			pLeftPivotFoot			pLeftHeelCenter			pLeftToe			
		X1	Y1	Z1	X2	Y2	Z2	X3	Y3	Z3	X4	Y4	Z4	X5	Y5	Z5	X6	Y6	Z6	X7	Y7	Z7	X8	Y8	Z8	X9	Y9	Z9	X10	Y10	Z10	X11	Y11	Z11	X12	Y12	Z12	X13	Y13	Z13	X14	Y14	Z14	X15	Y15	Z15	X16	Y16	Z16	X17	Y17	Z17	X18	Y18	Z18	X19	Y19	Z19	X20	Y20	Z20	X21	Y21	Z21	X22	Y22	Z22	X23	Y23	Z23	X24	Y24	Z24	X25	Y25	Z25	X26	Y26	Z26	X27	Y27	Z27	X28	Y28	Z28	X29	Y29	Z29	X30	Y30	Z30	X31	Y31	Z31	X32	Y32	Z32	X33	Y33	Z33	X34	Y34	Z34	X35	Y35	Z35	X36	Y36	Z36	X37	Y37	Z37	X38	Y38	Z38	X39	Y39	Z39	X40	Y40	Z40	X41	Y41	Z41	X42	Y42	Z42	X43	Y43	Z43	X44	Y44	Z44	X45	Y45	Z45	X46	Y46	Z46	X47	Y47	Z47	X48	Y48	Z48	X49	Y49	Z49	X50	Y50	Z50	X51	Y51	Z51	X52	Y52	Z52	X53	Y53	Z53	X54	Y54	Z54	X55	Y55	Z55	X56	Y56	Z56	X57	Y57	Z57	X58	Y58	Z58	X59	Y59	Z59	X60	Y60	Z60	X61	Y61	Z61	X62	Y62	Z62	X63	Y63	Z63	X64	Y64	Z64	
818	13.617	4.919907857114186E-14	1249.99598	5.863317863948313E-14	89.86069440537678	1318.3163	159.7859760460195	93.43276797477927	1361.31996	-130.99037072098486	57.083933971907214	1401.60698	144.7332664920507	59.97664519331144	1436.80755	-93.25933376652723	-71.71492360412131	1193.40919	51.57428485674661	-70.24642609507501	1210.98057	-67.44058800424007	-66.36847114711001	1286.23697	4.532401427082387	-3.39446372928961	1383.51539	18.16531580081776	68.36701003566692	1481.19842	32.64910184052282	138.07944393193108	1567.66813	45.23046227850014	404.9767931665807	1575.64462	67.10397236567346	297.9323295203461	1690.66783	66.68274996068425	218.74182755561773	1642.28872	56.92359486287238	299.59796354924157	1505.01227	53.74076075222462	347.93576774099665	1718.93233	72.41138556330287	592.2726446783406	1781.76159	99.86013622528594	501.8301165425211	1733.84489	156.8116445435246	516.131989301779	1741.35897	20.539307419148514	483.82998982722637	1785.28743	88.69051652887242	331.0011910312735	1660.20691	259.409329835379	364.3186411716843	1698.58651	-115.78359365400321	334.78294968358864	1341.84115	285.587409417574	306.4930474418469	1333.74907	225.34588978475358	409.03026371085195	1378.83354	-92.71206930369001	370.43653008925526	1375.71231	-37.99389445101386	435.2138848992987	1110.00291	214.82199721097385	483.1108370503813	1132.77635	223.52543821289444	297.6407627041302	1327.7378	253.372591289704	460.00188563945494	1143.23826	17.310676420446697	510.1727933980957	1161.15645	24.4078653301182	365.9131655107441	1369.41204	-71.17046471808743	646.9001970176423	1052.4335	316.7506935568125	555.0706280895922	1035.67132	268.0995986693516	497.31551254036856	1082.66322	224.35791027263755	675.9188505097197	1037.57874	9.451145822957812	571.9679253434633	1045.15062	24.316571471053805	514.3411801961994	1108.38449	35.84993333613414	15.106472920457193	1216.47163	177.16475538689633	262.8180468669595	859.09046	193.70829878711785	268.6175518751257	851.28738	110.06864767145409	302.71836081829986	884.40713	148.90996138152354	25.422897651258296	1251.152	-176.16259059736865	408.0827001849446	1044.05241	-175.67016459044834	414.8134233692913	1042.9542	-91.75480548785913	431.2101820095082	1086.42026	-131.92198321409072	293.88714865456365	799.72923	150.43486475737282	8.363107260951487	497.54765	100.42807433071106	23.115687766849522	501.53589	35.910935143764014	452.6138350508112	999.19914	-135.99836938858613	257.9718436151016	630.02664	-170.13573545828655	262.8584639926821	627.31002	-104.06448930189552	-63.13972928812377	442.46367	48.7551420819686	96.10538421070498	364.43284	17.598247629479474	84.45706820780161	352.23692	100.56209361942926	111.49941448399728	346.97706	59.233884260857636	-24.76572427959843	424.08307	51.414968237974335	190.7244644435823	303.1064	63.90867766396768	202.9186439108101	547.89198	-130.80686242208074	372.362476269318	524.71393	-74.54484732714974	378.1319600590611	514.02082	-158.310212732154	398.7625739609033	515.58144	-113.22143581597658	245.1586017013218	543.26793	-127.31647942590598	487.90140269215874	500.37988	-105.09457659064103	
819	13.633	4.919907857114186E-14	1249.99598	5.863317863948313E-14	88.9736074697089	1318.77871	160.07761511862014	94.4470946708895	1360.62635	-130.86060884037994	56.44673209275863	1402.06939	144.51340388652278	60.870862801827805	1436.34515	-93.63239567133562	-72.10782757743732	1193.69819	51.37580264658031	-69.89220714457679	1210.86497	-67.73781299495913	-66.31860019973493	1286.35257	3.962373890196748	-3.2702877668030803	1383.57319	17.683857089877197	68.46268901826387	1481.19842	32.493365100190886	138.13950168966602	1567.66813	45.481878001429	404.9086056217998	1575.64462	68.82115747253778	297.85549349205934	1690.61003	68.02992930025157	218.70774465760977	1642.23092	57.78218481865068	299.6381728105929	1505.01227	54.68790421305911	347.78616379188406	1718.87453	74.12144765776318	591.941863146518	1781.93499	102.70310739978015	501.37209525025617	1733.72929	159.23321476481325	516.0811140448985	1741.59017	22.996491204854692	483.49054572357727	1785.28743	91.16348070350128	329.6443500056823	1659.5133	260.8496648048124	364.7532991610817	1699.45352	-114.18652283004043	334.60024020190065	1341.32095	286.2688886655349	306.69459344996903	1333.28666	225.85584547558372	409.84764529108156	1379.52715	-91.73795186893105	371.17960542180515	1376.23252	-37.10833175387947	436.13253261281204	1110.00291	215.10749583191074	483.88952717991697	1132.94975	224.00384078632356	297.71659961821956	1327.1598	253.91258994772215	460.6533295806722	1143.46946	17.36767038022586	510.77283572552824	1161.32985	24.583442906389394	366.73766490807	1370.04785	-70.27778543642509	647.9074058966562	1052.6069	316.9618935905139	556.122106676974	1035.78692	268.27365200708937	498.23415902131353	1082.77882	224.64342298189493	676.6644491950003	1038.04115	8.900966782455953	572.7435593354877	1045.43963	23.89210795246072	515.0068802878059	1108.61569	35.7440598827329	14.300816477441458	1217.85884	177.46351870446938	274.65362697944823	869.84137	198.64137516954497	281.63032609690504	861.86489	115.14574208487537	314.07400003050543	896.42965	154.1702904009689	25.0600225568098	1249.01337	-176.23536494607052	398.7725526629987	1026.07642	-175.70517891472187	405.83613615124693	1025.49842	-91.84275209232695	423.79279840326615	1067.80846	-132.48886640933654	303.8625311712674	809.72874	154.5897773671687	7.1665297521257685	520.03208	96.754012298699	22.600597166429097	524.59833	32.41957616556391	445.73645010258736	982.66816	-136.64108949792123	264.9591560358672	606.3862	-169.81161307458765	270.54863605677025	603.72737	-103.80195534234117	-65.52214938974598	467.78033	44.567056251665406	91.43170264150004	385.00986	14.276422873027968	78.93191573248299	373.04513	97.12473372355265	106.04145043926216	367.03387	55.96651725570221	-27.739538225147378	448.24373	47.42131059869696	183.876567929001	320.85118	61.05306401431453	210.73604807489605	524.13593	-130.1229210814447	380.34987332412516	501.99829	-73.92809441709718	386.07507974505603	490.95838	-157.6563066982616	406.7871241395503	492.8658	-112.56040553711176	253.02029089466453	519.74308	-126.66969763698599	495.9330847762225	478.18444	-104.51498323230444	
820	13.65	4.919907857114186E-14	1249.99598	5.863317863948313E-14	88.08651410616491	1319.35672	160.3692465307764	95.70571927283228	1359.75934	-130.70946656441342	55.82377104311042	1402.64739	144.13068672356664	62.060767074209224	1435.70934	-94.1026761181633	-72.61932159512146	1194.16059	51.12591116218491	-69.50082740979425	1210.69157	-67.990767044742	-66.22445311611588	1286.52597	3.3552073177917556	-3.09470253008745	1383.63099	17.083808334568502	68.69120776774209	1481.14062	32.22616256046322	138.4138284743661	1567.55253	45.62896625825506	405.0333220295112	1575.41342	70.6783001633797	297.97867157291677	1690.43663	69.435634498576	218.88791669824633	1641.99972	58.53644607575781	299.87841026940885	1504.83887	55.69357476521901	347.8737206478795	1718.64333	75.93430531934837	591.789721756354	1781.81939	105.84890999930849	501.0555622083783	1733.38248	161.91332495400317	516.3717616637463	1741.59017	25.770749710231996	483.418310587532	1785.11403	93.86497128805277	328.5318222068126	1658.64629	262.31136731385527	365.6765477668364	1700.03153	-112.54671296411945	334.5060995461577	1340.68514	286.8760628983843	306.90327013093963	1332.65086	226.2843783342061	410.9535969506482	1379.87395	-90.7796289114153	372.16696580443534	1376.52152	-36.20140398227227	436.9768728460772	1109.82951	215.30445380354354	484.68247345984196	1132.89195	224.3193759465724	297.79956200984964	1326.46619	254.3711440247676	461.3933423478346	1143.41166	17.350359324893617	511.5428773715581	1161.21425	24.691839712521556	367.72502529070016	1370.39465	-69.37085766481795	648.8102719886784	1052.4913	316.9588374530026	557.0692513703768	1035.67132	268.23342865741756	499.0856311599955	1082.72102	224.75894403299947	677.4986026179057	1038.21455	8.276481494274151	573.6077416372605	1045.43963	23.393330525743465	515.842565609689	1108.44229	35.57100442662434	13.406605296801203	1219.65066	177.83658826972223	286.39659190729583	881.8639	204.63304795645024	294.51333843807953	873.48281	121.23716319440692	325.18842441846255	909.49259	160.31212167053215	24.608578636416198	1246.52795	-176.23383427966093	387.5396264348019	1006.48202	-175.33403099691935	395.0989171239355	1006.48202	-91.51028919734216	414.74832918251445	1047.46265	-132.74679824408105	314.04098270205844	821.17326	159.70609601606435	8.423089670310176	542.51652	94.1151169129339	24.69437430547463	547.66078	30.05905515576325	436.67773239189086	964.63437	-136.73616034736145	268.5334838335735	582.57234	-169.86814193751817	274.61866462748577	579.91352	-103.89717688853396	-65.17000155088223	492.40339	41.47978593877028	89.98983577308874	405.76028	12.468152015363728	76.51287529180138	394.20016	95.23097835409577	103.80817561777994	387.49529	54.2941487303067	-27.86731719824629	471.94198	44.66129415538837	180.48341771400487	339.34738	59.97668379721114	214.65901013755047	500.03307	-129.94382103824518	384.29573236023026	478.47345	-73.54184959190493	390.1395223976531	467.26013	-157.21866025928466	410.7701362994953	469.28315	-112.12988334310722	256.9361210519021	495.75583	-126.40916067325816	499.94611815459064	454.833	-103.95874674895941	
821	13.667	4.919907857114186E-14	1249.99598	5.863317863948313E-14	87.1251285832617	1320.05032	160.5723244378764	97.17860647386406	1358.42993	-130.66265941499412	55.34078043319196	1403.341	143.55508092900703	63.604897957533304	1434.78453	-94.87018798358613	-73.25653113471448	1194.7964	50.9060549845331	-69.14660845929605	1210.51817	-68.28799203546106	-66.11605630998372	1286.87277	2.5851656717619065	-2.6534595083742545	1383.74659	16.26083317577608	69.2739454677185	1481.08282	31.661735030016494	139.0423754421327	1567.26353	45.47881543604153	405.5209135316711	1574.83541	72.60821720292353	298.6046875275081	1689.91642	70.72123184187492	219.5780520901575	1641.65291	59.08915489686673	300.40720891454913	1504.37647	56.68347135633235	348.46411537760883	1718.12312	77.62705512590804	592.1561998614148	1781.24139	109.1631595022595	501.06475113710906	1732.74668	164.6219321230826	517.1952696073191	1741.06996	28.5506005616038	483.84177622449596	1784.53602	96.52776918934214	327.8406812728279	1657.49028	263.6458288298873	367.3097661725655	1699.85813	-111.04992324756346	334.5661573038926	1339.70253	287.12747862131323	307.3475757180403	1331.84165	226.36427692788038	412.3552404693877	1379.70055	-89.91850274715392	373.761506847791	1376.34812	-35.200327894477766	437.8939950884886	1109.3093	215.13853025285175	485.46674950749605	1132.48734	224.2649105348319	298.07388879454965	1325.48358	254.51823228159364	462.47331914767426	1142.71805	17.198676603702182	512.6085980210086	1160.46284	24.70302440451053	369.25238433134854	1370.27905	-68.53976680730008	649.748760538131	1051.9711	316.54861476390977	558.0077463477056	1035.20892	267.8232136287694	500.00987121950334	1082.31642	224.5115823292111	678.6798507463368	1037.75215	7.436201708025635	574.8118943995867	1044.80382	22.760189093611473	516.9739504511895	1107.69088	35.30074574938524	12.468110319472558	1222.07829	178.24680329837048	297.83267658627665	895.21584	211.7876804510219	306.95662556819815	886.02554	128.60298806223562	335.97305872835	923.71154	167.40975254488018	23.90573308141424	1243.52232	-176.17224462294809	373.77826507816224	984.86459	-174.1994328932788	381.9589784900901	985.6738	-90.44441142326309	403.43397246166546	1024.97821	-132.38277457125088	324.2611894814992	834.005	166.22098919043597	12.355691670223486	564.42295	92.77705115372105	29.545622786332867	570.02961	29.006502105807773	424.69206914512046	944.57756	-135.73340412897315	267.7176405801979	557.94928	-170.39082187975964	273.8842518667623	555.23266	-104.412732585803	-61.527500296715594	515.81264	39.706070736407064	92.23988886512277	426.2217	12.541925478263025	77.82290150752883	415.35518	95.26353701357027	105.34112700442279	407.8989	54.59237926309929	-24.674713877174803	494.65762	43.340540684076124	181.10943490116443	358.42158	61.2622670521895	213.9831155751397	475.23661	-130.65938441678236	383.341463421855	453.96599	-73.42019574958098	389.636683291351	442.63707	-157.09853831593867	410.04591034913176	444.77569	-111.8239957805618	256.28313878383085	471.01717	-126.91759212555482	499.1862709793651	430.44114	-103.24570672315315	
